<?xml version="1.0" encoding="utf-8"?>
<!-- Generator: Adobe Illustrator 19.1.0, SVG Export Plug-In . SVG Version: 6.00 Build 0)  -->
<svg version="1.1" id="Capa_1" xmlns="http://www.w3.org/2000/svg" xmlns:xlink="http://www.w3.org/1999/xlink" x="0px" y="0px"
	 viewBox="-281 405.8 31.1 31.1" style="enable-background:new -281 405.8 31.1 31.1;" xml:space="preserve">
<style type="text/css">
	.st0{fill:#999999;}
</style>
<g>
	<path class="st0" d="M-259.8,411.3c0-3.1-2-5.6-5.7-5.6c-3.7,0-5.6,2.5-5.6,5.6v1.3h11.2L-259.8,411.3L-259.8,411.3z"/>
	<path class="st0" d="M-265.4,425.8c3.7,0,5.7-2.5,5.7-5.6v-6.6H-271v6.6C-271,423.3-269.1,425.8-265.4,425.8z"/>
	<path class="st0" d="M-257.7,412.5v7.8c0,4.3-2.9,7.8-7.8,7.8s-7.8-3.5-7.8-7.8v-7.8c-1.2-1.2-2.2,0-2.2,0v7.8c0,0,0,0,0,0
		c0,5.1,3.9,9.4,8.9,9.9v3.5l-4.4,0l-1.1,3.3h13l-1.1-3.3l-4.1,0v-3.5c5-0.6,8.9-4.8,8.9-9.9h0v-7.8
		C-256.8,411.1-257.7,412.5-257.7,412.5z"/>
</g>
</svg>
