<?xml version="1.0" encoding="utf-8"?>
<!-- Generator: Adobe Illustrator 19.1.0, SVG Export Plug-In . SVG Version: 6.00 Build 0)  -->
<svg version="1.1" id="Capa_1" xmlns="http://www.w3.org/2000/svg" xmlns:xlink="http://www.w3.org/1999/xlink" x="0px" y="0px"
	 viewBox="-289 412.9 16 16" style="enable-background:new -289 412.9 16 16;" xml:space="preserve">
<style type="text/css">
	.st0{fill:#999999;}
</style>
<g>
	<path class="st0" d="M-283.7,414.9c-0.2,0.2-0.2,0.7-0.2,0.7v3.1v6.2c-0.7-0.3-1.6-0.3-2.6,0.2c-1.4,0.7-1.7,2-1.2,2.8
		s2,1.2,3.3,0.5c1-0.5,1.5-1.3,1.4-2v-7.8l8-1.6v7c-0.7-0.3-1.6-0.3-2.6,0.2c-1.4,0.7-1.7,2-1.2,2.8s2,1.2,3.3,0.5
		c1-0.5,1.5-1.3,1.4-2V417v-3c0,0,0-0.5-0.2-0.7c-0.2-0.2-0.8-0.1-0.8-0.1l-8,1.5C-283,414.6-283.5,414.7-283.7,414.9z"/>
</g>
</svg>
