<?xml version="1.0" encoding="utf-8"?>
<!-- Generator: Adobe Illustrator 19.1.0, SVG Export Plug-In . SVG Version: 6.00 Build 0)  -->
<svg version="1.1" id="Capa_1" xmlns="http://www.w3.org/2000/svg" xmlns:xlink="http://www.w3.org/1999/xlink" x="0px" y="0px"
	 viewBox="-53 177.7 487.2 487.2" style="enable-background:new -53 177.7 487.2 487.2;" xml:space="preserve">
<style type="text/css">
	.st0{fill:#999999;}
</style>
<g>
	<g>
		<path class="st0" d="M417.8,379.3H275.5c-0.7,12.5-5.8,23.9-14.1,32.3h140.2v107.5l-16.8-59c-2-6.9-8.3-11.7-15.5-11.7H28v-89.8
			h98.9v-32.3h-115c-8.9,0-16.1,7.2-16.1,16.1v105.9h-32.3c-5.1,0-9.8,2.4-12.9,6.4c-3.1,4-4,9.3-2.6,14.1l46,162.2
			c3.4,11.9,14.2,20.1,26.6,20.1l385.8-0.1c15.3,0,27.6-12.4,27.6-27.6V395.5C433.9,386.6,426.7,379.3,417.8,379.3z"/>
		<path class="st0" d="M433.9,664.9v-0.1C433.8,664.9,433.8,664.9,433.9,664.9z"/>
	</g>
	<path class="st0" d="M126.4,279.4h32.8v97.2c0,9.9,8,17.8,17.8,17.8h48.7c9.9,0,17.9-8,17.9-17.8v-97.2h32.8
		c5.4,0,10.3-3.3,12.4-8.3c2.1-5,0.9-10.8-2.9-14.6l-75-74.9c-2.6-2.6-6-3.9-9.5-3.9c-3.4,0-6.9,1.3-9.5,3.9l-74.9,74.9
		c-3.9,3.8-5,9.6-2.9,14.6C116.1,276.2,121,279.4,126.4,279.4z"/>
</g>
</svg>
